<?xml version="1.0" standalone="no"?>
<!DOCTYPE svg PUBLIC "-//W3C//DTD SVG 20010904//EN"
 "http://www.w3.org/TR/2001/REC-SVG-20010904/DTD/svg10.dtd">
<svg version="1.0" xmlns="http://www.w3.org/2000/svg"
 width="600.000000pt" height="600.000000pt" viewBox="0 0 600.000000 600.000000"
 preserveAspectRatio="xMidYMid meet">

<g transform="translate(0.000000,600.000000) scale(0.100000,-0.100000)"
fill="#000000" stroke="none">
<path d="M2525 2890 c-636 -636 -668 -670 -650 -684 35 -26 101 -23 160 6 22
12 256 145 520 296 264 152 514 294 555 317 41 24 177 101 302 172 l227 129
-217 217 c-119 119 -219 217 -222 217 -3 0 -306 -301 -675 -670z"/>
<path d="M1396 1675 c-212 -100 -220 -381 -15 -484 80 -40 159 -42 234 -7 91
43 128 97 141 206 l7 60 -127 0 -126 0 0 -36 0 -35 91 3 91 3 -6 -29 c-9 -44
-45 -95 -79 -113 -19 -10 -55 -17 -87 -17 -58 0 -121 7 -115 12 2 2 -14 19
-34 38 -122 109 -68 319 89 353 57 12 85 8 147 -22 35 -17 45 -18 58 -7 23 19
18 33 -19 58 -71 48 -170 55 -250 17z"/>
<path d="M2970 1425 l0 -255 35 0 35 0 0 255 0 255 -35 0 -35 0 0 -255z"/>
<path d="M3590 1425 l0 -256 32 3 32 3 0 95 1 95 85 6 c101 7 130 19 166 71
47 68 30 160 -39 212 -25 18 -45 21 -153 24 l-124 4 0 -257z m243 175 c31 -25
43 -72 27 -110 -17 -41 -67 -62 -143 -58 l-62 3 -2 93 -1 92 78 0 c62 0 82 -4
103 -20z"/>
<path d="M3990 1425 l0 -255 35 0 35 0 0 255 0 255 -35 0 -35 0 0 -255z"/>
<path d="M1915 1493 c-32 -8 -72 -41 -94 -77 -23 -36 -30 -146 -10 -146 5 0 7
-5 3 -11 -9 -14 43 -68 83 -85 37 -16 127 -19 118 -4 -3 6 1 7 10 4 21 -9 79
38 99 79 22 47 20 109 -4 157 -22 44 -63 76 -81 64 -7 -4 -9 -3 -6 3 12 19
-65 29 -118 16z m99 -63 c35 -13 58 -53 58 -100 -1 -50 -15 -76 -52 -95 -89
-46 -176 30 -149 130 17 62 78 90 143 65z"/>
<path d="M2290 1489 c-63 -25 -103 -89 -102 -165 1 -131 142 -207 259 -139 79
47 104 139 61 225 -38 73 -139 110 -218 79z m137 -61 c7 -1 10 -4 8 -8 -2 -4
2 -16 10 -26 17 -22 20 -97 5 -125 -14 -25 -62 -49 -98 -49 -65 0 -114 78 -92
145 18 54 55 78 110 71 25 -4 50 -7 57 -8z"/>
<path d="M2695 1493 c-32 -8 -84 -51 -100 -83 -18 -34 -20 -122 -4 -153 16
-30 67 -77 96 -88 39 -15 86 -10 121 11 l32 20 0 -36 c0 -47 -25 -92 -56 -100
-42 -11 -97 3 -117 30 -15 21 -21 23 -46 13 -25 -9 -28 -14 -19 -32 16 -36 89
-75 142 -75 58 0 97 19 133 67 l28 36 3 194 4 193 -36 0 c-27 0 -36 -4 -36
-17 0 -15 -2 -14 -20 2 -20 18 -89 28 -125 18z m112 -68 c36 -25 48 -89 28
-141 -9 -24 -22 -47 -28 -51 -13 -8 -119 -22 -112 -15 2 3 -7 18 -20 34 -38
44 -35 119 4 159 34 33 91 40 128 14z"/>
<path d="M3185 1489 c-28 -15 -75 -69 -86 -97 -28 -73 7 -170 76 -209 66 -38
163 -26 208 25 18 20 18 21 -7 37 -24 16 -27 16 -52 -4 -37 -29 -95 -28 -131
3 -32 28 -29 34 37 61 25 11 47 22 50 25 3 3 10 5 15 5 20 0 105 40 105 50 0
22 -42 76 -72 95 -36 22 -110 26 -143 9z m116 -59 c34 -19 20 -34 -61 -67 -76
-29 -80 -30 -80 -11 0 24 18 59 39 75 20 15 76 17 102 3z"/>
<path d="M4163 1474 c-18 -14 -33 -31 -33 -39 0 -21 50 -28 69 -10 42 37 141
5 141 -45 0 -17 -4 -18 -26 -10 -52 20 -137 8 -168 -23 -44 -43 -47 -100 -8
-146 23 -28 36 -34 80 -39 45 -4 56 -1 87 22 33 26 35 26 35 7 0 -17 6 -21 36
-21 l36 0 -4 123 c-2 103 -6 126 -23 149 -32 42 -67 58 -132 58 -47 0 -64 -5
-90 -26z m170 -161 c15 -9 6 -36 -22 -64 -23 -22 -39 -29 -69 -29 -46 0 -65
17 -60 57 2 22 11 31 38 40 31 10 91 8 113 -4z"/>
<path d="M4433 1478 c3 -7 33 -77 67 -155 l63 -143 -37 -80 c-20 -43 -36 -82
-36 -85 0 -3 15 -5 33 -5 l33 0 97 223 c53 122 99 230 103 240 6 16 2 18 -31
15 l-38 -3 -46 -113 c-34 -85 -47 -109 -53 -95 -4 10 -25 61 -46 113 -39 95
-39 95 -77 98 -28 3 -36 0 -32 -10z"/>
</g>
</svg>
